<svg width="44" height="44" viewBox="0 0 44 44" fill="none" xmlns="http://www.w3.org/2000/svg">
<g filter="url(#filter0_d)">
<g clip-path="url(#clip0)">
<path d="M21.7363 35.3647C31.4013 35.3647 39.2363 27.5297 39.2363 17.8647C39.2363 8.19976 31.4013 0.364746 21.7363 0.364746C12.0713 0.364746 4.23633 8.19976 4.23633 17.8647C4.23633 27.5297 12.0713 35.3647 21.7363 35.3647Z" fill="#FCDB50"/>
<path d="M28.8294 17.3855L24.4897 13.0457C24.2249 12.781 23.7955 12.781 23.5307 13.0457C23.2659 13.3106 23.2659 13.7399 23.5307 14.0047L26.7129 17.187H15.1228C14.7483 17.187 14.4447 17.4905 14.4447 17.865C14.4447 18.2395 14.7483 18.5431 15.1228 18.5431H26.7129L23.5308 21.7253C23.266 21.9901 23.266 22.4195 23.5308 22.6843C23.6631 22.8166 23.8368 22.8828 24.0103 22.8828C24.1839 22.8828 24.3574 22.8166 24.4898 22.6843L28.8294 18.3445C29.0942 18.0796 29.0942 17.6503 28.8294 17.3855Z" fill="#2F2F2F"/>
</g>
</g>
<defs>
<filter id="filter0_d" x="0.236328" y="0.364746" width="43" height="43" filterUnits="userSpaceOnUse" color-interpolation-filters="sRGB">
<feFlood flood-opacity="0" result="BackgroundImageFix"/>
<feColorMatrix in="SourceAlpha" type="matrix" values="0 0 0 0 0 0 0 0 0 0 0 0 0 0 0 0 0 0 127 0"/>
<feOffset dy="4"/>
<feGaussianBlur stdDeviation="2"/>
<feColorMatrix type="matrix" values="0 0 0 0 0 0 0 0 0 0 0 0 0 0 0 0 0 0 0.25 0"/>
<feBlend mode="normal" in2="BackgroundImageFix" result="effect1_dropShadow"/>
<feBlend mode="normal" in="SourceGraphic" in2="effect1_dropShadow" result="shape"/>
</filter>
<clipPath id="clip0">
<rect x="4.23633" y="0.364746" width="35" height="35" fill="white"/>
</clipPath>
</defs>
</svg>
