<svg width="36" height="34" viewBox="0 0 36 34" fill="none" xmlns="http://www.w3.org/2000/svg">
<path d="M18.1663 0.0932617C8.49751 0.0932617 0.66626 7.79326 0.66626 17.2899C0.66626 24.8893 5.68001 31.3337 12.6319 33.6058C13.5069 33.7676 13.8277 33.2353 13.8277 32.7789C13.8277 32.3706 13.8131 31.2885 13.8058 29.8549C8.93793 30.8918 7.91126 27.5478 7.91126 27.5478C7.11501 25.5631 5.96438 25.0322 5.96438 25.0322C4.37918 23.9662 6.08688 23.9881 6.08688 23.9881C7.84418 24.1076 8.7673 25.7599 8.7673 25.7599C10.3277 28.3893 12.8638 27.6295 13.8642 27.1906C14.0217 26.0778 14.4723 25.321 14.9725 24.8908C11.0861 24.4606 7.00126 22.9818 7.00126 16.3931C7.00126 14.5162 7.67939 12.982 8.8023 11.7789C8.60543 11.3443 8.0148 9.59576 8.95543 7.22743C8.95543 7.22743 10.4211 6.76659 13.7679 8.99055C15.1679 8.60847 16.6554 8.41889 18.1429 8.41014C19.6304 8.41889 21.1179 8.60847 22.5179 8.99055C25.8429 6.76659 27.3086 7.22743 27.3086 7.22743C28.2492 9.59576 27.6586 11.3443 27.4836 11.7789C28.5992 12.982 29.2773 14.5162 29.2773 16.3931C29.2773 22.9993 25.1867 24.4533 21.2929 24.8762C21.9054 25.3924 22.4742 26.4468 22.4742 28.0583C22.4742 30.3595 22.4523 32.2087 22.4523 32.7672C22.4523 33.2178 22.7586 33.756 23.6554 33.5839C30.6569 31.3264 35.6663 24.8776 35.6663 17.2899C35.6663 7.79326 27.8306 0.0932617 18.1663 0.0932617Z" fill="white"/>
</svg>
