<svg width="40" height="39" viewBox="0 0 40 39" fill="none" xmlns="http://www.w3.org/2000/svg">
<path d="M24.7393 3.91895H11.6143C5.57457 3.91895 0.676758 8.81676 0.676758 14.8564V27.9814C0.676758 34.0211 5.57457 38.9189 11.6143 38.9189H24.7393C30.7789 38.9189 35.6768 34.0211 35.6768 27.9814V14.8564C35.6768 8.81676 30.7789 3.91895 24.7393 3.91895ZM32.3955 27.9814C32.3955 32.2033 28.9611 35.6377 24.7393 35.6377H11.6143C7.39238 35.6377 3.95801 32.2033 3.95801 27.9814V14.8564C3.95801 10.6346 7.39238 7.2002 11.6143 7.2002H24.7393C28.9611 7.2002 32.3955 10.6346 32.3955 14.8564V27.9814Z" fill="white"/>
<path d="M18.1768 12.6689C13.3446 12.6689 9.42676 16.5868 9.42676 21.4189C9.42676 26.2511 13.3446 30.1689 18.1768 30.1689C23.0089 30.1689 26.9268 26.2511 26.9268 21.4189C26.9268 16.5868 23.0089 12.6689 18.1768 12.6689ZM18.1768 26.8877C15.1624 26.8877 12.708 24.4333 12.708 21.4189C12.708 18.4024 15.1624 15.9502 18.1768 15.9502C21.1911 15.9502 23.6455 18.4024 23.6455 21.4189C23.6455 24.4333 21.1911 26.8877 18.1768 26.8877Z" fill="white"/>
<path d="M28.0927 13.8353C28.7366 13.8353 29.2586 13.3133 29.2586 12.6694C29.2586 12.0254 28.7366 11.5034 28.0927 11.5034C27.4488 11.5034 26.9268 12.0254 26.9268 12.6694C26.9268 13.3133 27.4488 13.8353 28.0927 13.8353Z" fill="white"/>
</svg>
